<svg width="11" height="11" viewBox="0 0 11 11" fill="none" xmlns="http://www.w3.org/2000/svg">
<path d="M9.28125 1.9232H8.17609C8.17611 1.82723 8.15604 1.73233 8.11716 1.64459C8.07829 1.55685 8.02148 1.47822 7.95038 1.41376C7.87929 1.3493 7.79549 1.30044 7.70437 1.27033C7.61326 1.24021 7.51684 1.2295 7.42134 1.2389C7.24812 1.26034 7.08895 1.34507 6.97445 1.47681C6.85995 1.60854 6.7982 1.77796 6.80109 1.95247V2.26695C6.80106 2.42455 6.85518 2.57738 6.95439 2.69985C7.05359 2.82231 7.19186 2.90698 7.34604 2.93966C7.39012 2.94803 7.42919 2.97328 7.45492 3.01004C7.48065 3.0468 7.491 3.09215 7.48377 3.13643C7.47653 3.18071 7.45229 3.22041 7.4162 3.24707C7.38011 3.27374 7.33504 3.28524 7.29059 3.27915C7.05599 3.23299 6.84468 3.10685 6.69271 2.92225C6.54075 2.73766 6.45756 2.50604 6.45734 2.26695V1.9232H4.54266C4.54178 1.83221 4.52286 1.74231 4.48699 1.6587C4.45111 1.57508 4.39901 1.49941 4.33368 1.43608C4.26836 1.37275 4.19112 1.32301 4.10643 1.28974C4.02175 1.25647 3.9313 1.24034 3.84034 1.24228C3.74937 1.24422 3.6597 1.26419 3.5765 1.30103C3.49331 1.33787 3.41826 1.39086 3.35569 1.45692C3.29312 1.52298 3.24429 1.60079 3.21201 1.68586C3.17973 1.77093 3.16466 1.86156 3.16766 1.95249V2.26695C3.16763 2.42455 3.22175 2.57738 3.32095 2.69985C3.42016 2.82231 3.55842 2.90698 3.7126 2.93966C3.75668 2.94803 3.79575 2.97328 3.82148 3.01004C3.84721 3.0468 3.85756 3.09215 3.85033 3.13643C3.84309 3.18071 3.81885 3.22041 3.78276 3.24707C3.74668 3.27373 3.70161 3.28524 3.65715 3.27915C3.42255 3.23299 3.21124 3.10685 3.05928 2.92225C2.90732 2.73766 2.82413 2.50604 2.82391 2.26695V1.9232H1.71875C1.4454 1.9237 1.18339 2.03252 0.990108 2.2258C0.796821 2.41909 0.688008 2.6811 0.6875 2.95445V3.91179H10.3125V2.95445C10.312 2.6811 10.2032 2.41909 10.0099 2.2258C9.81661 2.03252 9.5546 1.9237 9.28125 1.9232ZM3.51141 1.9232C3.51272 1.83289 3.54951 1.74673 3.61384 1.68333C3.67816 1.61993 3.76485 1.5844 3.85516 1.5844C3.94548 1.5844 4.03217 1.61994 4.09649 1.68334C4.16081 1.74674 4.1976 1.83291 4.19891 1.92321L3.51141 1.9232ZM7.14484 1.9232C7.14615 1.83289 7.18295 1.74673 7.24727 1.68333C7.3116 1.61993 7.39829 1.5844 7.4886 1.5844C7.57892 1.5844 7.6656 1.61994 7.72993 1.68334C7.79425 1.74674 7.83104 1.83291 7.83234 1.92321L7.14484 1.9232Z" fill="#007EDB"/>
<path d="M0.6875 8.73296C0.687716 9.0064 0.796435 9.26857 0.989785 9.46192C1.18313 9.65527 1.44531 9.76399 1.71875 9.76421H9.28125C9.55469 9.76399 9.81686 9.65527 10.0102 9.46192C10.2036 9.26857 10.3123 9.0064 10.3125 8.73296V4.25562H0.6875V8.73296ZM8.25 4.94827C8.38575 4.9498 8.51542 5.0048 8.61087 5.10133C8.70632 5.19787 8.75985 5.32815 8.75985 5.4639C8.75984 5.59966 8.70631 5.72994 8.61085 5.82647C8.5154 5.923 8.38573 5.978 8.24998 5.97952C8.11424 5.97799 7.98457 5.92299 7.88912 5.82646C7.79367 5.72992 7.74014 5.59964 7.74014 5.46389C7.74014 5.32813 7.79368 5.19785 7.88913 5.10132C7.98458 5.00479 8.11425 4.9498 8.25 4.94827ZM8.25 6.49515C8.38575 6.49668 8.51542 6.55168 8.61087 6.64821C8.70632 6.74474 8.75985 6.87502 8.75985 7.01078C8.75984 7.14653 8.70631 7.27681 8.61085 7.37334C8.5154 7.46988 8.38573 7.52487 8.24998 7.5264C8.11424 7.52487 7.98457 7.46987 7.88912 7.37333C7.79367 7.2768 7.74014 7.14652 7.74014 7.01076C7.74014 6.87501 7.79368 6.74473 7.88913 6.6482C7.98458 6.55167 8.11425 6.49667 8.25 6.49515ZM8.25 8.04202C8.38575 8.04355 8.51542 8.09855 8.61087 8.19508C8.70632 8.29162 8.75985 8.4219 8.75985 8.55765C8.75984 8.69341 8.70631 8.82369 8.61085 8.92022C8.5154 9.01675 8.38573 9.07175 8.24998 9.07327C8.11424 9.07174 7.98457 9.01674 7.88912 8.92021C7.79367 8.82367 7.74014 8.69339 7.74014 8.55764C7.74014 8.42188 7.79368 8.2916 7.88913 8.19507C7.98458 8.09854 8.11425 8.04355 8.25 8.04202ZM5.5 4.94827C5.63575 4.9498 5.76542 5.0048 5.86087 5.10133C5.95632 5.19787 6.00985 5.32815 6.00985 5.4639C6.00984 5.59966 5.95631 5.72994 5.86085 5.82647C5.7654 5.923 5.63573 5.978 5.49998 5.97952C5.36424 5.97799 5.23457 5.92299 5.13912 5.82646C5.04367 5.72992 4.99014 5.59964 4.99014 5.46389C4.99014 5.32813 5.04368 5.19785 5.13913 5.10132C5.23458 5.00479 5.36425 4.9498 5.5 4.94827ZM5.5 6.49515C5.63575 6.49668 5.76542 6.55168 5.86087 6.64821C5.95632 6.74474 6.00985 6.87502 6.00985 7.01078C6.00984 7.14653 5.95631 7.27681 5.86085 7.37334C5.7654 7.46988 5.63573 7.52487 5.49998 7.5264C5.36424 7.52487 5.23457 7.46987 5.13912 7.37333C5.04367 7.2768 4.99014 7.14652 4.99014 7.01076C4.99014 6.87501 5.04368 6.74473 5.13913 6.6482C5.23458 6.55167 5.36425 6.49667 5.5 6.49515ZM5.5 8.04202C5.63575 8.04355 5.76542 8.09855 5.86087 8.19508C5.95632 8.29162 6.00985 8.4219 6.00985 8.55765C6.00984 8.69341 5.95631 8.82369 5.86085 8.92022C5.7654 9.01675 5.63573 9.07175 5.49998 9.07327C5.36424 9.07174 5.23457 9.01674 5.13912 8.92021C5.04367 8.82367 4.99014 8.69339 4.99014 8.55764C4.99014 8.42188 5.04368 8.2916 5.13913 8.19507C5.23458 8.09854 5.36425 8.04355 5.5 8.04202ZM2.75 4.94827C2.88575 4.9498 3.01541 5.0048 3.11087 5.10133C3.20632 5.19787 3.25985 5.32815 3.25985 5.4639C3.25984 5.59966 3.20631 5.72994 3.11085 5.82647C3.0154 5.923 2.88573 5.978 2.74998 5.97952C2.61424 5.97799 2.48457 5.92299 2.38912 5.82646C2.29367 5.72992 2.24014 5.59964 2.24014 5.46389C2.24014 5.32813 2.29368 5.19785 2.38913 5.10132C2.48458 5.00479 2.61425 4.9498 2.75 4.94827ZM2.75 6.49515C2.88575 6.49668 3.01541 6.55168 3.11087 6.64821C3.20632 6.74474 3.25985 6.87502 3.25985 7.01078C3.25984 7.14653 3.20631 7.27681 3.11085 7.37334C3.0154 7.46988 2.88573 7.52487 2.74998 7.5264C2.61424 7.52487 2.48457 7.46987 2.38912 7.37333C2.29367 7.2768 2.24014 7.14652 2.24014 7.01076C2.24014 6.87501 2.29368 6.74473 2.38913 6.6482C2.48458 6.55167 2.61425 6.49667 2.75 6.49515ZM2.75 8.04202C2.88575 8.04355 3.01541 8.09855 3.11087 8.19508C3.20632 8.29162 3.25985 8.4219 3.25985 8.55765C3.25984 8.69341 3.20631 8.82369 3.11085 8.92022C3.0154 9.01675 2.88573 9.07175 2.74998 9.07327C2.61424 9.07174 2.48457 9.01674 2.38912 8.92021C2.29367 8.82367 2.24014 8.69339 2.24014 8.55764C2.24014 8.42188 2.29368 8.2916 2.38913 8.19507C2.48458 8.09854 2.61425 8.04355 2.75 8.04202Z" fill="#007EDB"/>
<path d="M2.74984 5.63574C2.79501 5.6351 2.8381 5.61671 2.86982 5.58455C2.90153 5.55239 2.91931 5.50903 2.91931 5.46387C2.91931 5.4187 2.90153 5.37535 2.86982 5.34318C2.8381 5.31102 2.79501 5.29263 2.74984 5.29199C2.70468 5.29263 2.66158 5.31102 2.62987 5.34318C2.59816 5.37535 2.58038 5.4187 2.58038 5.46387C2.58038 5.50903 2.59816 5.55239 2.62987 5.58455C2.66158 5.61671 2.70468 5.6351 2.74984 5.63574Z" fill="#007EDB"/>
<path d="M2.74984 7.18262C2.79501 7.18198 2.8381 7.16359 2.86982 7.13143C2.90153 7.09926 2.91931 7.05591 2.91931 7.01074C2.91931 6.96557 2.90153 6.92222 2.86982 6.89006C2.8381 6.8579 2.79501 6.83951 2.74984 6.83887C2.70468 6.83951 2.66158 6.8579 2.62987 6.89006C2.59816 6.92222 2.58038 6.96557 2.58038 7.01074C2.58038 7.05591 2.59816 7.09926 2.62987 7.13143C2.66158 7.16359 2.70468 7.18198 2.74984 7.18262Z" fill="#007EDB"/>
<path d="M2.74984 8.72949C2.79501 8.72885 2.8381 8.71046 2.86982 8.6783C2.90153 8.64614 2.91931 8.60278 2.91931 8.55762C2.91931 8.51245 2.90153 8.4691 2.86982 8.43693C2.8381 8.40477 2.79501 8.38638 2.74984 8.38574C2.70468 8.38638 2.66158 8.40477 2.62987 8.43693C2.59816 8.4691 2.58038 8.51245 2.58038 8.55762C2.58038 8.60278 2.59816 8.64614 2.62987 8.6783C2.66158 8.71046 2.70468 8.72885 2.74984 8.72949Z" fill="#007EDB"/>
<path d="M5.49984 8.72949C5.54501 8.72885 5.5881 8.71046 5.61982 8.6783C5.65153 8.64614 5.66931 8.60278 5.66931 8.55762C5.66931 8.51245 5.65153 8.4691 5.61982 8.43693C5.5881 8.40477 5.54501 8.38638 5.49984 8.38574C5.45468 8.38638 5.41158 8.40477 5.37987 8.43693C5.34816 8.4691 5.33038 8.51245 5.33038 8.55762C5.33038 8.60278 5.34816 8.64614 5.37987 8.6783C5.41158 8.71046 5.45468 8.72885 5.49984 8.72949Z" fill="#007EDB"/>
<path d="M5.49984 7.18262C5.54501 7.18198 5.5881 7.16359 5.61982 7.13143C5.65153 7.09926 5.66931 7.05591 5.66931 7.01074C5.66931 6.96557 5.65153 6.92222 5.61982 6.89006C5.5881 6.8579 5.54501 6.83951 5.49984 6.83887C5.45468 6.83951 5.41158 6.8579 5.37987 6.89006C5.34816 6.92222 5.33038 6.96557 5.33038 7.01074C5.33038 7.05591 5.34816 7.09926 5.37987 7.13143C5.41158 7.16359 5.45468 7.18198 5.49984 7.18262Z" fill="#007EDB"/>
<path d="M5.49984 5.63574C5.54501 5.6351 5.5881 5.61671 5.61982 5.58455C5.65153 5.55239 5.66931 5.50903 5.66931 5.46387C5.66931 5.4187 5.65153 5.37535 5.61982 5.34318C5.5881 5.31102 5.54501 5.29263 5.49984 5.29199C5.45468 5.29263 5.41158 5.31102 5.37987 5.34318C5.34816 5.37535 5.33038 5.4187 5.33038 5.46387C5.33038 5.50903 5.34816 5.55239 5.37987 5.58455C5.41158 5.61671 5.45468 5.6351 5.49984 5.63574Z" fill="#007EDB"/>
<path d="M8.24984 5.63574C8.29501 5.6351 8.3381 5.61671 8.36982 5.58455C8.40153 5.55239 8.41931 5.50903 8.41931 5.46387C8.41931 5.4187 8.40153 5.37535 8.36982 5.34318C8.3381 5.31102 8.29501 5.29263 8.24984 5.29199C8.20468 5.29263 8.16158 5.31102 8.12987 5.34318C8.09816 5.37535 8.08038 5.4187 8.08038 5.46387C8.08038 5.50903 8.09816 5.55239 8.12987 5.58455C8.16158 5.61671 8.20468 5.6351 8.24984 5.63574Z" fill="#007EDB"/>
<path d="M8.24984 7.18262C8.29501 7.18198 8.3381 7.16359 8.36982 7.13143C8.40153 7.09926 8.41931 7.05591 8.41931 7.01074C8.41931 6.96557 8.40153 6.92222 8.36982 6.89006C8.3381 6.8579 8.29501 6.83951 8.24984 6.83887C8.20468 6.83951 8.16158 6.8579 8.12987 6.89006C8.09816 6.92222 8.08038 6.96557 8.08038 7.01074C8.08038 7.05591 8.09816 7.09926 8.12987 7.13143C8.16158 7.16359 8.20468 7.18198 8.24984 7.18262Z" fill="#007EDB"/>
<path d="M8.24984 8.72949C8.29501 8.72885 8.3381 8.71046 8.36982 8.6783C8.40153 8.64614 8.41931 8.60278 8.41931 8.55762C8.41931 8.51245 8.40153 8.4691 8.36982 8.43693C8.3381 8.40477 8.29501 8.38638 8.24984 8.38574C8.20468 8.38638 8.16158 8.40477 8.12987 8.43693C8.09816 8.4691 8.08038 8.51245 8.08038 8.55762C8.08038 8.60278 8.09816 8.64614 8.12987 8.6783C8.16158 8.71046 8.20468 8.72885 8.24984 8.72949Z" fill="#007EDB"/>
</svg>
